<svg width="177" height="92" viewBox="0 0 177 92" fill="none" xmlns="http://www.w3.org/2000/svg">
<path d="M58.8298 0.499191C58.5422 0.713112 58.3264 7.55873 58.3264 15.6166C58.3983 31.3758 58.7579 33.515 62.1381 37.8648C66.3093 43.3556 67.3162 46.7071 67.1723 55.1928C67.1004 59.4713 66.8127 63.8924 66.597 64.962C66.1655 66.7448 66.4531 67.1013 69.0422 68.3848C70.6244 69.2405 72.2066 69.8823 72.5662 69.8823C72.9977 69.8823 73.2134 64.7481 73.1415 57.546C73.0696 43.9974 72.8538 44.7817 78.823 36.296L80.9806 33.3011V16.8288C80.9806 2.63844 80.8367 0.356575 79.9018 0.356575C78.9669 0.356575 78.823 2.42451 78.6073 13.6913C78.5354 21.7491 78.1758 27.1686 77.7443 27.1686C77.3128 27.2399 76.5936 27.3112 76.1621 27.3825C75.4429 27.4538 75.1552 24.1023 74.8675 13.9052C74.5799 1.78274 74.3641 0.356575 73.2853 0.142647C72.0627 -0.0712814 71.9908 0.92704 71.9908 13.0495C71.9908 23.8884 71.7751 26.3842 70.9121 27.0972C70.049 27.8103 69.6175 27.8103 68.7545 27.0972C67.8915 26.3842 67.6757 23.8884 67.6757 13.1208C67.6757 1.92536 67.5319 3.05176e-05 66.597 3.05176e-05C65.662 3.05176e-05 65.5182 1.85405 65.5182 12.6929C65.5182 22.3909 65.3025 25.7424 64.5114 26.7407C63.6483 27.8816 63.3607 27.9529 62.3538 27.1686C61.347 26.3842 61.2031 24.2449 61.2031 13.1208C61.2031 2.63844 60.9874 3.05176e-05 60.2682 3.05176e-05C59.6929 3.05176e-05 59.0456 0.213959 58.8298 0.499191Z" fill="#EE8100"/>
<path d="M101.765 0.998138C96.8025 3.20869 93.4943 8.41422 92.1279 16.4721C90.7614 24.3873 92.5594 31.1616 98.169 39.0769C102.196 44.7815 102.412 45.9225 102.053 58.8293L101.765 70.6665L103.419 70.2387C104.282 70.0247 105.792 69.5969 106.727 69.2403L108.453 68.5986L108.094 57.9736C107.734 46.1364 108.309 43.6406 112.984 37.9359C119.601 29.8068 120.32 16.1155 114.782 6.70281C111.761 1.5686 106.08 -0.927193 101.765 0.998138Z" fill="#EE8100"/>
<path d="M35.6723 51.4846C33.2271 52.8395 31.7168 55.1927 31.7168 57.9024C31.7168 61.1826 36.1038 67.1725 43.6552 74.0181C57.1038 86.2831 77.6724 92.9148 95.6518 90.7043C113.487 88.4937 127.943 81.0776 139.234 68.3134C144.412 62.3948 145.275 60.9686 145.347 57.9024C145.347 54.7648 144.34 53.0534 141.607 51.6272C137.724 49.6306 135.135 50.7002 130.676 56.2623C121.255 67.9569 110.035 74.1607 94.5012 76.3713C89.9703 76.9417 87.0936 76.9417 82.6347 76.3713C67.5319 74.232 56.8162 68.456 47.7545 57.6171C42.073 50.8428 39.3401 49.4167 35.6723 51.4846Z" fill="#EE8100"/>
<path d="M17.4052 14.4043C14.5285 23.2465 16.4703 29.5217 23.4463 33.9428C25.5319 35.2977 25.5319 35.2977 24.9566 33.8715C24.597 33.0871 24.0217 31.1618 23.6621 29.593C23.3025 28.0242 22.7271 26.4554 22.2956 26.0276C21.936 25.671 21.6484 24.4588 21.6484 23.3891C21.6484 22.3195 21.2888 21.3925 20.8573 21.3925C20.4977 21.3925 20.3538 21.036 20.5696 20.6794C21.5764 19.1106 22.5833 20.3229 25.8196 26.8833C29.4874 34.3706 30.0628 34.3706 30.2066 26.8833C30.3504 21.2499 27.8333 17.114 22.2956 13.6912C18.8436 11.6232 18.2682 11.6946 17.4052 14.4043Z" fill="#4A7530"/>
<path d="M155.415 13.5486C154.409 14.333 153.33 14.9748 153.042 14.9748C152.107 14.9748 149.878 17.7558 148.224 20.8221C146.785 23.5318 146.426 28.5947 147.433 32.0888C147.936 33.8002 148.08 33.6576 149.878 30.1635C150.957 28.0956 151.82 26.3128 151.748 26.2415C151.388 25.7424 154.84 19.9664 155.415 19.9664C156.422 19.9664 156.35 20.3942 154.049 28.0242C152.898 31.8749 152.179 34.9412 152.539 34.9412C152.826 34.9412 154.552 33.5863 156.35 31.8749C161.097 27.5251 162.176 22.8187 160.09 15.8305C158.868 11.7659 158.148 11.4094 155.415 13.5486Z" fill="#4A7530"/>
<path d="M32.9394 18.1124C32.436 19.3959 33.9463 20.8221 35.025 20.109C35.4565 19.8238 35.8161 19.0394 35.8161 18.3263C35.8161 16.8288 33.4428 16.6862 32.9394 18.1124Z" fill="#4A7530"/>
<path d="M141.535 17.6132C140.744 18.3976 140.96 19.8238 141.967 20.1803C143.477 20.7508 144.772 19.6812 144.196 18.3263C143.765 17.114 142.398 16.7575 141.535 17.6132Z" fill="#4A7530"/>
<path d="M1.0078 28.9512C-1.3655 29.9495 0.86396 33.8715 3.45301 33.3723C5.39479 33.0158 5.25095 28.9512 3.30917 28.7373C2.51807 28.666 1.4393 28.8086 1.0078 28.9512Z" fill="#4A7530"/>
<path d="M172.46 29.0224C171.453 30.0207 171.957 32.7304 173.323 33.1583C176.272 34.0853 178.214 31.4469 176.128 29.3789C175.193 28.4519 173.179 28.238 172.46 29.0224Z" fill="#4A7530"/>
<path d="M7.5524 36.0106C4.38802 37.4368 3.23733 38.9342 4.38802 40.2891C4.89144 40.8596 5.75446 41.3587 6.3298 41.3587C6.90514 41.3587 7.19281 41.644 6.97706 42.0005C6.25788 43.1414 12.7305 45.1381 15.3195 44.6389C20.3538 43.7119 20.7853 41.43 16.0387 41.2874C12.3709 41.2161 9.9257 40.4317 9.56611 39.2908C9.27844 38.5064 10.1415 38.3638 13.9531 38.649C19.4908 39.1482 20.7853 38.5777 18.6278 36.795C16.686 35.0836 10.501 34.6557 7.5524 36.0106Z" fill="#4A7530"/>
<path d="M159.012 36.5813L156.494 38.1501L162.104 38.3641C167.354 38.578 168.72 39.1484 166.779 40.3607C166.275 40.7172 164.549 41.0025 162.967 41.1451C161.385 41.2877 159.299 41.5729 158.292 41.7869C156.638 42.1434 156.566 42.286 157.789 43.1417C160.018 44.7818 164.621 45.067 167.498 43.7835C170.662 42.3573 173.395 40.0041 173.395 38.7919C173.395 37.5797 169.871 35.4404 168.649 35.9396C168.073 36.1535 167.642 36.0109 167.642 35.6543C167.642 34.2995 161.601 34.9412 159.012 36.5813Z" fill="#4A7530"/>
<path d="M28.1208 40.9312C27.114 41.9295 27.1859 43.9974 28.3366 44.7105C30.9256 46.2793 33.1551 44.4966 31.8605 41.7869C31.0694 40.0755 29.4153 39.6476 28.1208 40.9312Z" fill="#4A7530"/>
<path d="M145.635 41.7155C144.484 43.4982 144.484 43.6409 145.635 44.7818C146.57 45.7088 147.073 45.7801 148.08 45.2096C149.878 44.0687 150.022 41.5729 148.296 40.7172C147.073 40.0041 146.642 40.2181 145.635 41.7155Z" fill="#4A7530"/>
</svg>
